<?xml version="1.0" encoding="UTF-8" standalone="no"?>
<!-- Created with Inkscape (http://www.inkscape.org/) -->
<svg
   xmlns:svg="http://www.w3.org/2000/svg"
   xmlns="http://www.w3.org/2000/svg"
   version="1.0"
   width="688"
   height="688"
   id="svg2652">
  <defs
     id="defs2654" />
  <g
     id="layer1">
    <rect
       width="688"
       height="688"
       x="0"
       y="0"
       id="rect2715"
       style="opacity:1;fill:#000000;fill-opacity:1;stroke:#60441c;stroke-width:0;stroke-linecap:round;stroke-linejoin:miter;stroke-miterlimit:4;stroke-dasharray:none;stroke-opacity:1" />
    <path
       d="M 335.45952,511.28851 C 333.90893,509.8675 333.74687,509.52792 334.30076,508.86051 C 334.65494,508.43375 336.67478,502.11807 338.78928,494.82565 C 342.27176,482.81548 343.04852,480.80746 344.22116,480.78351 C 344.42219,480.77941 344.58667,486.93823 344.58667,494.46979 C 344.58667,509.77472 344.41151,510.75684 341.42948,512.17191 C 338.94402,513.35133 337.47291,513.13365 335.45952,511.28851 z M 347.51071,512.59483 C 346.16123,512.09864 345.01412,510.84207 345.58727,510.48785 C 345.96071,510.25705 346.10734,505.55913 346.07014,495.01753 C 346.03504,485.07316 346.18942,479.77192 346.52004,479.56758 C 346.79687,479.39649 347.02337,479.33314 347.02337,479.42681 C 347.02337,479.52048 348.7778,485.50057 350.9221,492.71591 C 353.0664,499.93125 354.82083,506.35869 354.82083,506.99912 C 354.82083,510.75035 350.8211,513.81205 347.51071,512.59483 z M 326.31137,509.57428 C 324.86683,508.94315 323.26166,507.03313 322.87845,505.4894 C 322.69285,504.74173 322.73567,504.19347 322.9736,504.27105 C 324.10484,504.6399 326.34029,501.69407 331.62637,492.86864 C 336.42931,484.84982 337.61797,483.18909 338.86574,482.75411 C 339.68684,482.46787 340.42815,482.30318 340.51309,482.38812 C 340.72463,482.59967 334.06086,505.3304 333.46092,506.44368 C 332.05032,509.06127 328.59757,510.57314 326.31137,509.57428 z M 358.23222,509.58103 C 357.27783,509.316 356.94614,508.825 356.70126,507.31474 C 356.52932,506.25436 354.72326,499.36371 352.68777,492.00219 C 350.6523,484.64065 349.16342,478.44107 349.37916,478.22533 C 349.87071,477.73378 364.66455,501.33158 365.21675,503.48801 C 365.77306,505.6605 364.5037,508.24254 362.38515,509.24786 C 360.65362,510.06952 360.13973,510.11075 358.23222,509.58103 z M 316.4773,503.39906 C 314.99615,502.6525 313.39683,500.19796 313.39683,498.67131 C 313.39683,498.27528 314.10956,497.65607 314.98069,497.2953 C 315.85181,496.93452 318.54392,494.85171 320.96315,492.66682 C 323.93447,489.98333 326.67867,488.03217 329.42022,486.65375 C 331.65237,485.53144 333.55539,484.6899 333.64914,484.78365 C 334.05325,485.18777 324.2226,501.22294 322.87818,502.3526 C 320.91672,504.00072 318.46592,504.4014 316.4773,503.39906 z M 367.62703,503.55925 C 367.36778,503.22421 367.03986,502.62112 366.89831,502.21907 C 366.75677,501.81701 363.31867,496.00708 359.2581,489.30812 C 352.49978,478.1585 351.14829,475.17777 354.00282,477.71745 C 375.90612,497.2049 375.86301,497.15509 374.0785,500.91568 C 372.8767,503.44829 368.82561,505.10827 367.62703,503.55925 z M 198.26859,496.09543 C 196.90124,495.35352 195.46025,493.12389 195.46025,491.75014 C 195.46025,491.32636 195.07647,490.84117 194.6074,490.67195 C 190.95508,489.35432 189.21052,485.55706 190.3219,481.344 C 190.67297,480.01315 191.6726,477.88885 192.5433,476.62333 L 194.12638,474.3224 L 195.69248,476.0319 C 198.32151,478.90163 202.4085,479.05672 204.96922,476.38391 C 205.73641,475.58314 206.70686,474.92838 207.12578,474.9289 C 208.13556,474.93015 210.85606,479.04303 211.50872,481.55508 C 211.90859,483.09417 211.86795,484.08315 211.33157,485.8654 C 210.48486,488.67882 209.50388,489.82857 207.34118,490.54233 C 206.43546,490.84124 205.69441,491.40864 205.69441,491.80322 C 205.69441,493.17653 204.20656,495.38462 202.78632,496.11905 C 201.02004,497.03243 199.9855,497.02702 198.26859,496.09543 z M 484.82524,496.09543 C 483.45789,495.35352 482.0169,493.12389 482.0169,491.75014 C 482.0169,491.32636 481.63312,490.84117 481.16405,490.67195 C 477.51173,489.35432 475.76717,485.55706 476.87855,481.344 C 477.22962,480.01315 478.22925,477.88885 479.09995,476.62333 L 480.68303,474.3224 L 482.24913,476.0319 C 484.87816,478.90163 488.96515,479.05672 491.52587,476.38391 C 492.29306,475.58314 493.26351,474.92838 493.68243,474.9289 C 494.69222,474.93015 497.41272,479.04303 498.06537,481.55508 C 498.46525,483.09417 498.4246,484.08315 497.88822,485.8654 C 497.04151,488.67882 496.06053,489.82857 493.89783,490.54233 C 492.99211,490.84124 492.25107,491.40864 492.25107,491.80322 C 492.25107,493.17653 490.76321,495.38462 489.34297,496.11905 C 487.57669,497.03243 486.54215,497.02702 484.82524,496.09543 z M 309.81227,495.96934 C 309.10769,495.67467 310.01072,495.08309 313.9029,493.28954 C 316.65004,492.02364 318.973,491.06319 319.06502,491.15521 C 319.15704,491.24724 318.02736,492.36283 316.55461,493.63431 C 313.84749,495.97146 311.64291,496.73497 309.81227,495.96934 z M 376.01765,495.88771 C 376.36572,495.32453 376.73545,495.68818 364.62934,484.68672 C 356.25257,477.07431 355.34783,476.10424 356.10707,475.54907 C 356.57425,475.20746 357.13578,474.92796 357.35492,474.92796 C 357.57406,474.92796 362.5371,477.32172 368.3839,480.24743 C 381.90656,487.01411 383.51944,488.62786 381.34327,493.21378 C 380.90518,494.13699 379.87797,495.16421 378.95475,495.6023 C 377.13291,496.46682 375.56562,496.61913 376.01765,495.88771 z M 307.70475,494.04606 C 307.92458,493.92736 307.6764,493.53043 307.15324,493.164 C 306.63007,492.79756 305.2811,490.5731 304.15553,488.22075 C 303.02996,485.86841 301.90749,483.56297 301.66117,483.09754 C 301.07695,481.99368 301.09628,481.75073 301.76834,481.75073 C 302.4603,481.75073 314.45735,474.78627 346.04869,456.04534 C 389.89287,430.03565 395.94392,426.40838 403.33887,421.70306 C 407.34427,419.15447 414.67852,414.5962 419.63722,411.57358 C 429.81422,405.37009 454.57722,389.65715 467.39666,381.26864 C 479.33701,373.45537 489.10021,367.2671 499.31751,361.03604 C 504.14219,358.09369 514.8351,351.04029 523.07952,345.3618 C 531.32395,339.68331 541.74087,332.70375 546.22823,329.85167 C 555.35835,324.04873 567.94544,315.45905 578.41383,307.8876 C 582.24725,305.11503 585.64646,302.75138 585.96762,302.63505 C 586.73074,302.35867 596.44657,317.71088 602.29613,328.43607 C 610.80603,344.03915 623.42184,374.07247 621.86922,375.03205 C 620.35373,375.96866 591.47399,385.25444 591.15785,384.90676 C 590.96749,384.69743 590.53142,383.64894 590.18877,382.57679 C 588.65053,377.76352 583.96045,374.44262 578.56792,374.34836 C 576.79074,374.3173 574.62792,374.59358 573.7506,374.96373 C 572.24106,375.6006 571.96513,375.53736 568.43464,373.74537 C 564.91467,371.95872 564.46841,371.8557 560.28,371.86295 C 556.53177,371.86943 555.42711,372.06729 553.11024,373.14717 C 548.32704,375.37658 544.53704,379.5489 542.8985,384.38899 C 542.12565,386.67193 541.85355,386.96019 539.69206,387.7859 C 536.78218,388.8975 535.16041,390.29668 533.53989,393.09369 C 531.84427,396.02033 531.41502,399.92182 532.45335,402.9695 C 532.89577,404.26809 533.17449,405.41385 533.07271,405.51562 C 532.97094,405.61739 528.29499,407.261 522.6817,409.16807 C 511.9196,412.82442 490.31443,420.79433 475.19412,426.68573 C 470.23542,428.6178 461.68259,431.79148 456.18781,433.73834 C 444.44006,437.90071 432.07088,442.6815 419.88089,447.77127 C 415.05621,449.78575 408.14815,452.57076 404.52964,453.96017 C 400.91113,455.34958 392.68725,458.65249 386.25434,461.29998 C 379.82144,463.94747 370.17208,467.85543 364.81133,469.98433 C 352.88244,474.72163 332.8006,483.18256 318.75758,489.38781 C 309.72674,493.37831 306.14811,494.88653 307.70475,494.04606 z M 346.82376,470.99266 C 347.82531,470.16145 348.13031,467.78245 347.42379,466.31248 C 346.14109,463.64374 341.68637,463.77522 340.64427,466.51258 C 339.95125,468.333 340.6618,470.61502 342.16643,471.40115 C 343.43743,472.06522 345.77886,471.85985 346.82376,470.99266 z M 199.0606,476.5465 C 198.49444,476.43281 197.41932,475.7011 196.67144,474.92048 C 195.60835,473.81085 195.43328,473.35463 195.86906,472.82954 C 196.17564,472.46014 196.2639,471.95878 196.0652,471.7154 C 195.8665,471.47203 196.30522,471.80288 197.04014,472.45064 C 198.83822,474.03546 202.28232,474.09433 203.90701,472.56802 C 205.0826,471.4636 205.69441,471.60073 205.69441,472.96864 C 205.69441,474.96945 201.76385,477.08935 199.0606,476.5465 z M 485.67196,476.53433 C 484.30065,476.1979 482.0169,473.93721 482.0169,472.91618 C 482.0169,471.54178 482.94736,471.35398 483.90393,472.5353 C 485.04213,473.94091 488.81627,474.07922 490.2647,472.76841 C 490.78735,472.29542 491.44809,472.05251 491.73302,472.2286 C 494.00384,473.63205 488.82834,477.30868 485.67196,476.53433 z M 199.14695,471.3563 C 198.37854,470.79442 198.27284,470.03828 198.34853,465.64491 C 198.39652,462.85983 198.51375,460.50316 198.60904,460.40787 C 198.70434,460.31257 199.78927,460.38561 201.02001,460.57017 L 203.25771,460.90573 L 203.25771,465.69617 C 203.25771,470.09402 203.16894,470.54879 202.17459,471.24527 C 200.85087,472.17243 200.29115,472.19296 199.14695,471.3563 z M 485.70158,471.35482 C 484.93476,470.79411 484.82612,470.04955 484.90373,465.88653 C 484.95314,463.23598 485.03655,461.02659 485.08909,460.97679 C 485.14163,460.92698 486.22631,460.73117 487.49949,460.54164 L 489.81436,460.19705 L 489.81436,465.34183 C 489.81436,470.10585 489.7342,470.54276 488.73124,471.24527 C 487.40703,472.17278 486.84785,472.193 485.70158,471.35482 z M 119.3193,466.85496 C 118.01038,466.14475 116.51097,463.89766 116.51097,462.64627 C 116.51097,462.29762 115.57893,461.56866 114.43977,461.02636 C 109.71562,458.77741 109.2589,452.58327 113.40251,446.95855 L 115.15874,444.57455 L 116.7551,446.31707 C 119.45349,449.26252 123.21543,449.34294 126.15136,446.51793 L 127.75061,444.97909 L 128.94253,446.42981 C 133.41459,451.87283 133.24139,458.67576 128.57266,460.95703 C 127.56752,461.44817 126.74513,462.1718 126.74513,462.56509 C 126.74513,463.93628 125.25627,466.14466 123.83704,466.87858 C 122.07076,467.79196 121.03622,467.78655 119.3193,466.85496 z M 197.89696,422.51201 C 129.14529,397.74973 71.342788,376.92659 69.446958,376.23836 L 65.999998,374.98704 L 69.510868,365.6237 C 76.457658,347.09693 85.090548,329.55941 95.470679,312.88699 C 98.307609,308.33035 100.69424,304.50995 100.77431,304.39721 C 100.85438,304.28447 101.41246,304.63506 102.01449,305.17629 C 104.04051,306.99773 124.32079,321.41546 124.85684,321.41546 C 125.63148,321.41546 125.33641,321.98233 120.53093,329.72616 C 116.44842,336.30493 106.99755,353.54418 107.34077,353.7862 C 107.56235,353.94245 161.68226,382.02491 164.06913,383.22216 L 166.06088,384.22123 L 169.14389,378.28193 C 173.26868,370.33569 179.4431,360.21078 179.81208,360.78806 C 179.97539,361.04356 212.89488,384.5493 252.96651,413.02305 C 293.03815,441.49679 326.00456,464.96255 326.22521,465.16919 C 326.56004,465.48275 323.66158,467.70515 323.08613,467.57609 C 322.98375,467.55313 266.64862,447.27429 197.89696,422.51201 z M 564.26188,466.85496 C 562.95293,466.14475 561.45352,463.89766 561.45352,462.64627 C 561.45352,462.29762 560.52148,461.56866 559.38232,461.02636 C 557.93555,460.33762 557.02983,459.46767 556.37811,458.14084 C 555.53735,456.42925 555.50445,455.94827 556.0454,453.27927 C 556.4207,451.42741 557.34343,449.24649 558.50735,447.46044 L 560.36894,444.60365 L 561.48286,446.11027 C 563.68866,449.0938 568.18911,449.34457 570.98012,446.63946 L 572.54824,445.11958 L 573.83482,446.50005 C 575.95836,448.77854 577.25634,451.97284 577.27515,454.96663 C 577.29616,458.31029 576.20734,460.14222 573.58734,461.17139 C 572.54253,461.5818 571.68769,462.22417 571.68769,462.59888 C 571.68769,463.93959 570.18414,466.15224 568.77958,466.87858 C 567.01331,467.79196 565.97878,467.78655 564.26188,466.85496 z M 216.36035,384.62102 C 154.85849,340.61067 103.96339,304.16358 103.26013,303.62751 L 101.98148,302.65283 L 108.14971,294.31375 C 121.94273,275.66638 134.48235,262.21943 154.31878,244.80404 C 155.32491,243.92071 155.39626,243.99692 164.0656,255.21602 C 168.86891,261.43203 173.07301,266.79246 173.40806,267.12808 C 174.15442,267.87573 174.18647,268.29527 173.49724,268.29527 C 172.59905,268.29527 159.88967,280.15182 153.60834,286.84958 L 147.59316,293.26354 L 148.7435,294.38692 C 149.37619,295.00478 160.17049,305.2568 172.73084,317.1692 L 195.56784,338.82809 L 205.30707,329.08886 C 213.3991,320.99683 215.15164,319.46251 215.66913,320.01704 C 216.12125,320.50152 326.47486,459.09176 329.58094,463.07594 C 329.87994,463.45947 329.72156,463.81586 329.10564,464.14549 C 328.32065,464.56561 311.38857,452.62263 216.36035,384.62102 z M 244.6234,353.46178 C 196.81075,293.39996 157.43529,243.89883 157.12239,243.45926 C 156.63265,242.77127 157.64865,241.81569 164.4226,236.59319 C 180.56841,224.14526 198.42162,213.00347 214.90211,205.09006 C 219.56428,202.85143 223.46648,201.10751 223.57365,201.21468 C 223.72643,201.36747 235.42223,228.88671 235.42223,229.09341 C 235.42223,229.12207 235.1481,229.15185 234.81305,229.15958 C 233.61022,229.18734 217.49056,237.48402 210.45914,241.69437 C 204.10038,245.50193 203.33956,246.09458 203.77227,246.90311 C 204.92881,249.06413 236.51774,302.20299 236.8577,302.55937 C 237.06435,302.77602 239.82961,301.38533 243.00273,299.46898 C 246.17584,297.55262 251.52504,294.6058 254.88983,292.9205 L 261.00764,289.85631 L 296.82723,375.61859 C 316.52799,422.78785 332.7109,461.551 332.78924,461.75893 C 332.86758,461.96687 332.62203,462.25582 332.24359,462.40104 C 331.77409,462.58121 303.93913,427.97366 244.6234,353.46178 z M 334.2115,460.18588 C 334.07659,459.85084 309.68433,401.46126 280.00648,330.43128 C 250.32863,259.40129 226.01802,200.96568 225.98291,200.57437 C 225.81214,198.6711 255.38184,188.12434 273.67852,183.56255 C 283.21596,181.18465 300.9968,177.75819 301.44954,178.21094 C 301.61314,178.37453 305.11203,206.83079 305.11203,207.99766 C 305.11203,208.07579 304.54387,208.18673 303.84946,208.2442 C 300.2914,208.53868 287.67934,211.13444 279.15094,213.32756 C 271.20827,215.37005 269.55533,215.94254 269.74092,216.5867 C 269.86474,217.01647 273.63727,231.40354 278.12433,248.55795 C 282.61137,265.71236 286.30609,279.79281 286.33481,279.84783 C 286.36354,279.90286 289.22951,279.17153 292.70365,278.22266 C 299.64801,276.326 312.90949,273.63118 312.90949,274.11671 C 312.90949,274.28539 317.95347,316.29401 324.11833,367.46921 C 330.2832,418.64441 335.32718,460.57804 335.32718,460.65505 C 335.32718,461.08273 334.4188,460.70075 334.2115,460.18588 z M 199.27383,458.58947 C 188.67046,457.14311 177.00144,452.6154 167.6818,446.33142 C 161.59299,442.22589 153.54708,434.50916 149.12881,428.53747 C 145.46064,423.5796 139.9801,412.98654 138.21603,407.44471 C 137.53583,405.30785 136.9793,403.29136 136.9793,402.96363 C 136.9793,402.56404 137.84511,402.75065 139.60762,403.53012 C 141.05319,404.16942 142.34905,404.57937 142.48731,404.44112 C 142.62556,404.30286 143.35825,405.90594 144.1155,408.00351 C 152.40297,430.95951 171.81628,447.57044 196.19126,452.56194 C 200.57786,453.46022 203.05753,453.65349 209.83681,453.62546 C 217.02945,453.59572 218.88951,453.41608 223.94661,452.2627 C 231.09038,450.63343 237.20048,448.32581 242.97602,445.07582 C 245.38836,443.71835 247.91035,442.6164 248.58044,442.62703 C 249.25054,442.63766 250.76526,443.06887 251.94649,443.58526 L 254.09418,444.52417 L 249.02244,447.6486 C 233.99015,456.90921 215.98498,460.86896 199.27383,458.58947 z M 336.78921,459.18373 C 336.78921,459.10161 329.33351,395.79536 320.22099,318.50317 C 311.10847,241.21098 303.73752,177.88718 303.84109,177.7836 C 303.94467,177.68003 308.9332,177.03947 314.92672,176.36014 C 324.59731,175.26404 327.85386,175.12215 343.85566,175.09975 C 359.36489,175.07803 363.28482,175.22749 371.87778,176.16814 C 377.37255,176.76965 381.93564,177.32509 382.01799,177.40245 C 382.10033,177.47981 381.16829,184.15879 379.94679,192.24462 C 378.72528,200.33044 377.72587,206.9947 377.72587,207.05407 C 377.72587,207.11345 374.16219,206.79398 369.80658,206.34415 C 365.45096,205.89432 357.33673,205.36663 351.77495,205.17151 L 341.66262,204.81674 L 341.65152,206.70635 C 341.64542,207.74564 341.32146,222.08314 340.93161,238.56745 C 340.54175,255.05177 340.21779,269.10727 340.21169,269.8019 L 340.2006,271.06487 L 349.58191,271.40869 C 358.83961,271.74797 366.34332,272.3452 366.77523,272.7771 C 366.89714,272.89901 360.41946,314.86326 352.38038,366.031 C 344.34132,417.19874 337.76389,459.12395 337.76389,459.19814 C 337.76389,459.27233 337.54459,459.33304 337.27655,459.33304 C 337.00851,459.33304 336.78921,459.26585 336.78921,459.18373 z M 471.05172,458.78426 C 460.31912,457.76376 448.35269,453.64185 438.7471,447.65675 L 433.7336,444.53291 L 436.73268,443.40546 L 439.73176,442.27801 L 444.05583,444.71558 C 450.03626,448.08687 456.83605,450.69307 463.7416,452.26067 C 468.79703,453.40829 470.71264,453.59415 477.8745,453.6319 C 487.22766,453.6812 492.66713,452.80805 501.46575,449.84497 C 513.38676,445.83038 525.07121,437.4218 533.14993,427.04383 C 536.81685,422.33328 541.1165,414.66621 542.96303,409.54526 C 544.51898,405.23016 544.6002,405.11698 546.78952,404.21276 C 548.01976,403.70466 549.4101,403.06774 549.87917,402.79739 C 551.04304,402.1266 550.99226,402.65275 549.41151,407.64606 C 547.40425,413.98659 542.44095,423.25082 537.70901,429.48931 C 525.60234,445.45051 507.6455,455.94578 487.86499,458.62175 C 482.26267,459.37966 477.77011,459.42308 471.05172,458.78426 z M 339.7367,457.85175 C 339.67587,457.16945 384.07516,177.96084 384.2765,177.75949 C 384.40317,177.63283 389.08227,178.322 394.6745,179.29098 C 413.66045,182.58075 433.13383,188.02329 451.0277,195.04095 C 456.14408,197.0475 460.41628,198.77472 460.52147,198.87922 C 460.62666,198.98371 457.79395,205.33324 454.22657,212.98928 C 450.65918,220.64533 447.59343,226.67155 447.41379,226.38087 C 446.88381,225.52335 431.51578,219.74008 422.19627,216.89107 C 417.45313,215.44106 413.5048,214.32227 413.42221,214.40486 C 412.96789,214.85917 394.30019,276.86411 394.47812,277.32779 C 394.59531,277.63319 396.85002,278.4901 399.48858,279.23205 C 405.03754,280.79237 418.67908,285.66116 419.3324,286.31448 C 419.59838,286.58046 404.32801,319.94081 381.13797,369.75578 C 344.51346,448.42961 339.79231,458.47555 339.7367,457.85175 z M 343.71831,454.94697 C 344.34392,453.43036 460.94177,202.67785 461.71123,201.19426 L 462.517,199.64065 L 471.63871,204.02703 C 489.24961,212.49563 506.4989,223.0382 521.73521,234.64546 C 526.02381,237.91258 529.53267,240.90411 529.53267,241.29331 C 529.53267,241.68251 525.15581,247.04084 519.80631,253.2007 C 513.01991,261.01513 509.9684,264.2011 509.71087,263.74094 C 508.4009,261.40014 480.90626,242.37565 480.09567,243.24915 C 479.36339,244.03824 444.42512,298.60741 444.58195,298.71708 C 444.66629,298.77606 447.14763,300.33763 450.09605,302.18724 C 455.60931,305.64584 466.42243,313.49861 466.4214,314.04313 C 466.42038,314.58544 345.62472,454.18981 344.50134,454.94697 C 343.53727,455.59675 343.45027,455.59675 343.71831,454.94697 z M 199.72448,451.67386 L 198.3843,451.47084 L 198.3843,438.10132 C 198.3843,430.74809 198.45488,424.73181 198.54115,424.73181 C 198.62742,424.73181 199.72394,425.08138 200.97786,425.50863 L 203.25771,426.28545 L 203.25771,439.15419 L 203.25771,452.02292 L 202.16119,451.9499 C 201.5581,451.90974 200.46159,451.78552 199.72448,451.67386 z M 484.94095,439.15419 L 484.94095,426.28545 L 487.2208,425.50863 C 488.47472,425.08138 489.57123,424.73181 489.6575,424.73181 C 489.74377,424.73181 489.81436,430.73396 489.81436,438.06993 L 489.81436,451.40805 L 487.98683,451.71012 C 486.98169,451.87626 485.88517,452.0146 485.55012,452.01755 C 485.07803,452.02171 484.94095,449.12714 484.94095,439.15419 z M 351.89679,449.75315 C 352.56688,448.91236 393.24769,402.02041 442.29859,345.54882 C 491.34948,289.07723 531.42082,242.6528 531.34599,242.3834 C 531.11958,241.56824 543.69278,252.88753 551.14538,260.20822 C 559.86776,268.77626 571.02744,281.6166 578.6708,291.87899 C 581.88633,296.19638 584.70082,299.80188 584.92524,299.89122 C 585.59616,300.15836 585.38695,301.30958 584.61354,301.60637 C 584.21772,301.75826 578.6803,305.47 572.30817,309.85467 C 558.82466,319.13273 559.44002,318.73828 559.76333,317.89579 C 560.10105,317.01562 550.45584,304.15337 543.3079,295.95188 C 540.09582,292.26637 537.31976,289.25094 537.13889,289.25094 C 536.62213,289.25094 487.62132,332.24297 487.62132,332.69637 C 487.62132,332.91914 489.70471,335.44285 492.25107,338.30461 C 497.34115,344.02519 504.92194,353.9018 504.92194,354.81284 C 504.92194,355.13073 503.55129,356.22951 501.87606,357.25458 C 500.20082,358.27965 482.27275,369.64388 462.03591,382.50842 C 441.79906,395.37296 417.75388,410.44487 408.60217,416.00156 C 399.45046,421.55825 388.59494,428.2488 384.47878,430.86945 C 380.36262,433.49011 371.84123,438.6908 365.54234,442.42656 C 359.24345,446.16233 353.32226,449.68304 352.38413,450.25036 L 350.67843,451.28186 L 351.89679,449.75315 z M 120.11132,446.81868 C 118.56834,446.50883 116.31981,443.96451 116.70405,442.9632 C 116.99173,442.21351 117.14407,442.24312 118.22541,443.259 C 119.89581,444.82825 123.59232,444.85799 124.84399,443.31224 C 125.68385,442.27506 125.73269,442.26961 126.20915,443.15989 C 127.19618,445.00417 123.1538,447.42966 120.11132,446.81868 z M 565.10858,446.80651 C 563.50849,446.41396 561.53471,444.26388 561.80957,443.21282 C 562.12113,442.02139 562.32182,442.03671 563.37067,443.332 C 564.58099,444.82666 568.5498,444.83955 569.75377,443.35272 C 570.64293,442.25467 571.20035,442.40174 571.20035,443.73439 C 571.20035,445.60117 567.59885,447.41744 565.10858,446.80651 z M 120.03079,442.00479 C 119.01433,441.29283 118.94767,440.88792 118.94767,435.42568 C 118.94767,432.22443 119.05146,429.60522 119.17831,429.60522 C 119.30516,429.60522 120.40167,430.08753 121.61501,430.67702 L 123.82108,431.74881 L 123.82108,436.75163 C 123.82108,441.19901 123.71642,441.81047 122.87844,442.25895 C 121.62793,442.9282 121.30844,442.89969 120.03079,442.00479 z M 564.97334,442.00479 C 563.97892,441.30827 563.89023,440.85363 563.89023,436.45328 L 563.89023,431.66042 L 565.96143,430.82302 C 567.10059,430.36245 568.30676,429.87656 568.64181,429.74328 C 569.10887,429.55748 569.25098,430.87111 569.25098,435.37354 C 569.25098,440.88966 569.18524,441.2922 568.16787,442.00479 C 567.57214,442.42204 566.85336,442.76343 566.57061,442.76343 C 566.28785,442.76343 565.56907,442.42204 564.97334,442.00479 z M 138.92866,433.00257 C 126.24406,431.73571 113.1739,425.47859 104.38761,416.46664 C 96.528989,408.40618 91.600808,399.67979 89.032838,389.27773 C 88.420758,386.79838 87.974958,384.76983 88.042168,384.76983 C 88.109378,384.76983 89.224238,385.22414 90.519638,385.77942 C 91.815048,386.33469 92.984568,386.82415 93.118588,386.86709 C 93.252598,386.91004 93.863688,388.70359 94.476538,390.85275 C 96.014599,396.2464 99.408029,402.92042 103.10333,407.8195 C 112.07939,419.71959 125.17527,426.75241 141.22567,428.29214 L 147.2932,428.87421 L 149.00572,431.18908 L 150.71824,433.50395 L 146.65098,433.43579 C 144.41399,433.3983 140.93895,433.20335 138.92866,433.00257 z M 537.5738,433.13228 C 537.5738,432.84529 537.74736,432.53739 537.95949,432.44804 C 538.17162,432.3587 538.93646,431.50091 539.65913,430.54184 L 540.97308,428.79809 L 546.95126,428.26803 C 563.2966,426.81877 576.85896,419.36958 585.947,406.84941 C 588.92987,402.74002 592.386,395.594 593.72692,390.76332 L 594.8364,386.76632 L 597.43831,385.76807 C 598.86934,385.21904 600.10699,384.76983 600.18857,384.76983 C 600.58332,384.76983 597.86902,394.2229 596.56914,397.37509 C 589.39616,414.76972 574.97612,427.12986 556.51096,431.71096 C 550.75356,433.13934 537.5738,434.12854 537.5738,433.13228 z M 158.70978,429.46259 L 157.00158,427.41219 L 160.75783,426.17794 C 165.82031,424.5145 170.47106,422.28699 174.4366,419.6264 L 177.7277,417.41832 L 180.37892,418.20565 L 183.03014,418.99297 L 181.3259,420.45565 C 177.07503,424.10399 170.61713,427.75245 164.26422,430.09484 L 160.41797,431.513 L 158.70978,429.46259 z M 523.35866,429.88125 C 521.03511,428.99897 517.56782,427.41603 515.65359,426.3636 C 510.42239,423.48754 503.13131,417.94811 505.28744,418.48787 C 506.12788,418.69827 509.79535,417.78682 509.79535,417.36755 C 509.79535,417.11686 511.3853,417.98805 513.32857,419.30354 C 517.63617,422.21954 520.6025,423.72292 525.39027,425.41658 C 527.40055,426.12771 529.37429,426.84763 529.77634,427.0164 C 530.1784,427.18517 530.69203,427.2817 530.91775,427.23092 C 531.14347,427.18014 530.51396,428.13219 529.51885,429.34659 C 528.52374,430.56098 527.68115,431.53902 527.64644,431.51998 C 527.61171,431.50095 525.68222,430.76352 523.35866,429.88125 z M 121.26395,420.89689 L 118.95049,419.61473 L 118.94908,407.7967 C 118.94831,401.29679 119.05146,395.97868 119.17831,395.97868 C 119.30516,395.97868 120.40167,396.46098 121.61501,397.05047 L 123.82108,398.12226 L 123.82108,410.20868 C 123.82108,416.85621 123.76626,422.26899 123.69925,422.23707 C 123.63224,422.20516 122.53636,421.60208 121.26395,420.89689 z M 563.89023,410.15919 L 563.89023,398.03387 L 565.96143,397.19647 C 567.10059,396.7359 568.30676,396.25002 568.64181,396.11673 C 569.11911,395.92685 569.25098,398.44814 569.25098,407.76487 L 569.25098,419.65535 L 566.57061,420.96993 L 563.89023,422.28451 L 563.89023,410.15919 z M 535.92102,402.30425 C 535.48986,401.22667 535.14191,399.74637 535.1478,399.01469 C 535.16401,396.99924 536.75612,393.90658 538.55799,392.3904 C 540.28333,390.93862 539.73852,390.97126 547.23691,391.87049 L 549.83355,392.18189 L 548.08975,393.36684 C 547.13066,394.01856 546.34594,394.94594 546.34594,395.42768 C 546.34594,395.90942 546.04719,396.30357 545.68204,396.30357 C 545.31689,396.30357 544.22782,396.79201 543.26188,397.389 C 541.99168,398.17403 541.42023,398.92957 541.1971,400.11898 C 541.02741,401.02348 541.02014,401.97639 541.18093,402.23655 C 541.39368,402.5808 537.76419,404.26348 536.80889,404.26348 C 536.75173,404.26348 536.35218,403.38182 535.92102,402.30425 z M 542.59398,401.01896 C 542.21805,400.03931 544.47477,397.92804 545.89784,397.92804 C 546.44963,397.92804 547.03781,397.45355 547.28192,396.81149 C 547.5154,396.19739 548.02069,395.43413 548.40479,395.11536 C 549.02212,394.60302 555.23315,392.07995 555.87702,392.07995 C 556.09979,392.07995 555.62356,397.00985 555.37029,397.32553 C 555.25781,397.46572 543.34067,401.82677 543.07004,401.82677 C 542.9787,401.82677 542.76447,401.46326 542.59398,401.01896 z M 557.55479,395.76294 C 557.55479,393.82354 558.84303,391.7075 560.56622,390.81641 C 562.49151,389.82081 565.34514,390.52168 566.49185,392.2718 L 567.25166,393.43143 L 563.01238,395.02112 C 560.68079,395.89546 558.49902,396.71135 558.16397,396.83423 C 557.77341,396.97745 557.55479,396.59296 557.55479,395.76294 z M 567.72585,390.65435 L 565.95709,388.7747 L 570.86384,386.95464 L 575.77058,385.13457 L 576.63235,386.19884 C 577.35649,387.09308 577.66045,387.17411 578.53503,386.70604 C 579.82502,386.01567 581.71093,386.44124 582.12322,387.51575 C 582.29311,387.95848 582.34331,388.40957 582.23468,388.51816 C 582.09121,388.66167 569.49465,392.64689 569.49465,392.54879 C 569.49465,392.54065 568.69868,391.68815 567.72585,390.65435 z M 555.37716,389.67741 C 554.51339,387.76193 554.64117,385.25717 555.60265,385.25717 C 555.88891,385.25717 555.87278,384.74196 555.56079,383.92144 C 555.11131,382.73914 555.21063,382.45952 556.42572,381.48715 C 558.16533,380.09502 558.7268,380.105 559.86206,381.54826 C 560.36587,382.18874 561.2042,382.79394 561.72497,382.89314 C 562.26538,382.99609 563.23885,384.1294 563.99262,385.53324 L 565.31336,387.99295 L 563.35956,388.10824 C 560.98606,388.24828 559.72848,388.75535 557.75246,390.36906 L 556.24438,391.60059 L 555.37716,389.67741 z M 549.07537,390.07958 C 547.49412,389.84887 546.09532,389.55506 545.96693,389.42667 C 545.41065,388.87039 547.02113,384.31811 548.58919,382.01445 C 551.19163,378.19118 555.88019,375.51034 559.96431,375.51034 C 562.6922,375.51034 566.35057,376.76466 568.89132,378.57108 L 571.17184,380.19245 L 569.19474,382.60298 C 568.10734,383.92876 567.05224,385.18683 566.85005,385.39869 C 566.6479,385.61054 565.89613,384.8978 565.17944,383.81483 C 564.46276,382.73185 563.54909,381.84578 563.14908,381.84578 C 562.74907,381.84578 561.96045,381.31523 561.39665,380.66679 C 560.83284,380.01835 559.83901,379.35414 559.18812,379.19078 C 558.01655,378.89674 554.90288,380.0365 554.32547,380.97075 C 553.93804,381.59769 553.53705,384.91362 553.46829,388.05948 C 553.4256,390.01313 553.23953,390.60404 552.68138,390.55859 C 552.27932,390.52585 550.65662,390.3103 549.07537,390.07958 z M 582.99825,386.38386 C 582.26909,385.38292 581.60109,385.0601 580.15593,385.01034 C 579.11691,384.97457 577.64943,384.68651 576.89488,384.37022 C 575.09669,383.61645 574.18648,383.64454 571.67292,384.53136 C 570.52528,384.93628 569.52823,385.20951 569.45727,385.13855 C 569.38627,385.06758 570.71042,383.47707 572.39979,381.60406 L 575.47131,378.1986 L 578.46276,378.23925 C 581.00692,378.27381 581.72599,378.49509 583.27189,379.71918 C 585.3581,381.3711 588.04734,386.29452 587.12603,386.77526 C 585.18085,387.79027 583.93682,387.6723 582.99825,386.38386 z M 137.66353,367.33546 C 122.62768,359.63593 110.23703,353.21586 110.12874,353.06863 C 110.02046,352.92141 111.73172,349.39557 113.93155,345.23344 C 118.33045,336.9106 127.05074,322.61238 127.31136,323.29522 C 127.53101,323.87068 176.86604,358.94074 177.45593,358.94074 C 178.09808,358.94074 178.02937,359.4604 177.26771,360.36439 C 176.0926,361.75907 170.76695,370.7993 168.46842,375.30109 C 167.22706,377.73236 165.93915,380.08451 165.60641,380.5281 C 165.0647,381.25025 162.14192,379.87032 137.66353,367.33546 z M 506.52051,353.75331 C 507.15213,352.73133 490.81722,332.68544 489.62606,333.02076 C 488.76539,333.26305 489.82293,332.32823 512.96307,312.39192 C 525.02476,302.0002 535.34887,293.08804 535.90553,292.58711 C 536.9115,291.68187 536.95224,291.7164 542.61885,298.27614 C 548.53532,305.12514 558.14413,317.75121 558.23419,318.7949 C 558.28473,319.38045 541.09308,331.22915 518.81116,345.96573 C 505.66569,354.65974 506.14994,354.35291 506.52051,353.75331 z M 174.16623,315.67996 C 162.42464,304.59706 152.3019,295.02112 151.67125,294.40009 L 150.52462,293.27096 L 155.56998,287.79108 C 158.34493,284.77715 163.87677,279.35662 167.86295,275.74546 C 173.80275,270.36449 175.2194,269.29779 175.71379,269.83402 C 176.04556,270.19387 184.61155,281.01488 194.74931,293.88068 C 204.88706,306.74649 213.38896,317.4129 213.64241,317.58382 C 213.89586,317.75473 213.14329,318.72737 211.97002,319.74524 C 210.79676,320.7631 206.61431,324.79873 202.67569,328.7133 L 195.51457,335.83069 L 174.16623,315.67996 z M 467.571,312.80819 C 468.1127,311.84176 448.56036,297.99466 447.24403,298.41249 C 446.99151,298.49265 447.10872,298.05405 447.50449,297.43781 C 469.35485,263.41585 480.77856,245.87757 481.0887,245.87757 C 482.59357,245.87757 508.78464,264.53161 508.80077,265.61489 C 508.80664,266.0098 469.58488,311.20616 467.77766,312.88699 C 467.42123,313.21849 467.35515,313.1933 467.571,312.80819 z M 221.87574,273.82616 C 213.28883,259.1857 206.36016,246.96281 206.47868,246.66419 C 206.80099,245.85218 219.48778,238.67258 228.35914,234.28179 L 236.15996,230.42085 L 248.09646,258.914 C 254.66153,274.58523 260.06976,287.54787 260.11472,287.71987 C 260.15969,287.89187 257.77141,289.23876 254.80744,290.71297 C 250.56827,292.82142 242.608,297.28103 237.99781,300.13029 C 237.69853,300.31526 231.04662,289.46227 221.87574,273.82616 z M 419.85973,284.40753 C 419.16607,283.71749 406.95163,279.3255 401.36192,277.75622 C 398.68155,277.00371 396.43972,276.36417 396.38008,276.33501 C 396.15574,276.22531 414.25749,217.43582 414.63044,217.06287 C 415.43159,216.26172 446.92833,227.19844 446.92833,228.27777 C 446.92833,228.60443 421.73967,282.34923 420.80578,284.01523 C 420.50162,284.55781 420.1552,284.70146 419.85973,284.40753 z M 287.56436,277.97993 C 287.5625,277.8801 284.05775,264.31497 279.77604,247.8352 C 273.67405,224.34943 272.12082,217.75224 272.59114,217.31809 C 273.70633,216.28867 304.77799,209.31784 305.41443,209.95428 C 305.47721,210.01705 307.0796,223.11463 308.97532,239.06 C 310.87103,255.00538 312.54943,268.93564 312.70511,270.01613 C 312.94678,271.69342 312.85568,271.99064 312.08209,272.04891 C 308.05386,272.35235 289.31788,276.76109 288.17692,277.67402 C 287.84187,277.9421 287.56622,278.07976 287.56436,277.97993 z M 366.24131,270.72409 C 365.39124,270.40186 353.39736,269.5109 344.83034,269.1336 L 342.39363,269.02628 L 342.50725,254.40604 C 342.56974,246.36491 342.76019,232.3574 342.93049,223.27823 L 343.24011,206.77065 L 351.58902,207.08537 C 361.21823,207.44837 377.23853,208.85193 377.23853,209.33257 C 377.23853,209.97242 367.48808,270.89774 367.36919,271.00074 C 367.30255,271.05847 366.79501,270.93398 366.24131,270.72409 z"
       id="path4764"
       style="fill:#ffffff" />
  </g>
</svg>
