<?xml version="1.0" encoding="UTF-8" standalone="no"?>
<!-- Uploaded to: SVG Repo, www.svgrepo.com, Generator: SVG Repo Mixer Tools -->

<svg
   width="800"
   height="600"
   viewBox="0 0 1024 768"
   version="1.1"
   id="svg1"
   sodipodi:docname="hackthebox.svg"
   inkscape:version="1.3.2 (091e20e, 2023-11-25, custom)"
   xmlns:inkscape="http://www.inkscape.org/namespaces/inkscape"
   xmlns:sodipodi="http://sodipodi.sourceforge.net/DTD/sodipodi-0.dtd"
   xmlns="http://www.w3.org/2000/svg"
   xmlns:svg="http://www.w3.org/2000/svg">
  <defs
     id="defs1" />
  <sodipodi:namedview
     id="namedview1"
     pagecolor="#ffffff"
     bordercolor="#000000"
     borderopacity="0.25"
     inkscape:showpageshadow="2"
     inkscape:pageopacity="0.0"
     inkscape:pagecheckerboard="0"
     inkscape:deskcolor="#d1d1d1"
     inkscape:zoom="1.42125"
     inkscape:cx="315.91909"
     inkscape:cy="343.71152"
     inkscape:window-width="2560"
     inkscape:window-height="1351"
     inkscape:window-x="-9"
     inkscape:window-y="-9"
     inkscape:window-maximized="1"
     inkscape:current-layer="svg1" />
  <circle
     cx="512"
     cy="384"
     r="512"
     style="fill:#9fef00"
     id="circle1" />
  <path
     d="m 506.5,128.59999 c 2.9,-0.8 5.9,-0.7 8.9,-0.4 3.8,0.4 7,2.8 10.3,4.6 66.5,38.4 133,76.9 199.6,115.3 6.4,3.2 11.1,10 10.7,17.4 v 237.7 c 0.2,6.7 -4,12.9 -9.7,16 -67.9,39.2 -135.8,78.5 -203.7,117.7 -6.1,4 -14.5,4.1 -20.7,0.3 -66.7,-38.5 -133.3,-77 -200,-115.6 -3.3,-2 -6.9,-3.6 -9.4,-6.6 -3.1,-3.4 -4.7,-8 -4.5,-12.6 v -237.8 c -0.2,-6.6 4,-12.8 9.6,-15.9 67.1,-38.7 134.1,-77.5 201.1,-116.2 2.6,-1.4 5,-3.1 7.8,-3.9 z m 3.9,47.5 c -1.5,0.2 -2.8,1 -4.1,1.7 -46.2,26.7 -92.4,53.3 -138.5,80.1 -5.5,3.1 -5.5,12.1 0.2,15.1 46.3,26.9 92.7,53.6 139.1,80.4 2.9,1.9 6.9,1.9 9.8,0 46.4,-26.8 92.8,-53.5 139.1,-80.4 5.6,-3 5.7,-12 0.1,-15.1 -46.3,-26.8 -92.7,-53.6 -139.1,-80.4 -1.9,-1.3 -4.3,-1.8 -6.6,-1.4 z m -173.9,138.3 c -3.5,1.3 -5.8,5.1 -5.6,8.8 v 159.9 c -0.1,3.6 2.1,6.9 5.2,8.5 46.2,26.7 92.3,53.4 138.5,80 5.7,3.5 13.6,-1.4 13.2,-8 v -160 c 0.1,-3.3 -1.6,-6.5 -4.4,-8.2 l -138.6,-80.1 c -2.4,-1.5 -5.6,-2.2 -8.3,-0.9 z m 344.8,-0.1 c -4.1,1.9 -7.8,4.4 -11.8,6.6 -42.8,24.7 -85.6,49.5 -128.4,74.2 -3.2,1.6 -5.1,5 -5,8.6 v 159.9 c -0.4,6.6 7.5,11.5 13.2,8.1 46.2,-26.7 92.4,-53.4 138.5,-80 3.1,-1.5 5.4,-4.9 5.2,-8.4 v -160.8 c 0.1,-5.8 -6.4,-10.4 -11.7,-8.2 z"
     style="fill:#ffffff"
     id="path1" />
</svg>
