<?xml version="1.0" encoding="UTF-8" standalone="no"?>
<!-- Created with Inkscape (http://www.inkscape.org/) -->

<svg
   version="1.0"
   width="688"
   height="450"
   id="svg2652"
   sodipodi:docname="favicon.svg"
   inkscape:version="1.3.2 (091e20e, 2023-11-25, custom)"
   xmlns:inkscape="http://www.inkscape.org/namespaces/inkscape"
   xmlns:sodipodi="http://sodipodi.sourceforge.net/DTD/sodipodi-0.dtd"
   xmlns="http://www.w3.org/2000/svg"
   xmlns:svg="http://www.w3.org/2000/svg">
  <sodipodi:namedview
     id="namedview1"
     pagecolor="#ffffff"
     bordercolor="#000000"
     borderopacity="0.25"
     inkscape:showpageshadow="2"
     inkscape:pageopacity="0.0"
     inkscape:pagecheckerboard="0"
     inkscape:deskcolor="#d1d1d1"
     inkscape:zoom="1.1685762"
     inkscape:cx="107.82352"
     inkscape:cy="233.18976"
     inkscape:window-width="2560"
     inkscape:window-height="1351"
     inkscape:window-x="-9"
     inkscape:window-y="-9"
     inkscape:window-maximized="1"
     inkscape:current-layer="svg2652" />
  <defs
     id="defs2654" />
  <g
     id="layer1"
     transform="translate(0,-121.5154)">
    <rect
       width="688"
       height="688"
       x="0"
       y="0"
       id="rect2715"
       style="display:inline;opacity:1;fill:#000000;fill-opacity:1;stroke:#60441c;stroke-width:0;stroke-linecap:round;stroke-linejoin:miter;stroke-miterlimit:4;stroke-dasharray:none;stroke-opacity:1" />
    <path
       d="m 333.51236,549.42901 c -1.90412,-1.74499 -2.10313,-2.16199 -1.42295,-2.98157 0.43493,-0.52406 2.91528,-8.27966 5.51187,-17.2347 4.27645,-14.74839 5.23031,-17.21423 6.6703,-17.24364 0.24687,-0.005 0.44885,7.55795 0.44885,16.80665 0,18.79434 -0.2151,20.00037 -3.87701,21.73807 -3.05212,1.44831 -4.85864,1.18101 -7.33106,-1.08481 z m 14.79876,1.60415 c -1.65715,-0.60932 -3.06579,-2.15238 -2.36196,-2.58736 0.45858,-0.28342 0.63864,-6.05243 0.59296,-18.99743 -0.0431,-12.21161 0.14647,-18.72149 0.55247,-18.97242 0.33994,-0.2101 0.61809,-0.28789 0.61809,-0.17287 0,0.11503 2.15442,7.45854 4.78761,16.31892 2.63318,8.86038 4.78761,16.75323 4.78761,17.53967 0,4.60648 -4.91164,8.36623 -8.97678,6.87149 z m -26.03262,-3.70921 c -1.77389,-0.77503 -3.74502,-3.12052 -4.2156,-5.0162 -0.22792,-0.91814 -0.17533,-1.5914 0.11684,-1.49613 1.38916,0.45295 4.13427,-3.16451 10.62554,-14.00207 5.89797,-9.84705 7.35764,-11.88641 8.88989,-12.42057 1.0083,-0.3515 1.91863,-0.55374 2.02293,-0.44943 0.25977,0.25978 -7.92329,28.17294 -8.66001,29.54004 -1.73221,3.21438 -5.97216,5.07095 -8.77959,3.84436 z m 39.19856,0.008 c -1.17199,-0.32546 -1.5793,-0.9284 -1.88001,-2.78299 -0.21114,-1.30214 -2.42897,-9.76381 -4.92854,-18.8037 -2.49954,-9.03991 -4.32787,-16.65295 -4.06294,-16.91787 0.60362,-0.60362 18.77034,28.37429 19.44844,31.02237 0.68314,2.6678 -0.87562,5.83853 -3.47719,7.07306 -2.1263,1.00899 -2.75736,1.05962 -5.09976,0.40913 z m -51.27472,-7.59142 c -1.81885,-0.91677 -3.7828,-3.93092 -3.7828,-5.80564 0,-0.48632 0.87523,-1.2467 1.94497,-1.68973 1.06973,-0.44303 4.37562,-3.00071 7.34641,-5.68373 3.64876,-3.29531 7.01862,-5.69132 10.38522,-7.38401 2.74106,-1.37819 5.07796,-2.41159 5.19308,-2.29647 0.49625,0.49626 -11.57572,20.18733 -13.22665,21.57454 -2.40866,2.02388 -5.41822,2.51591 -7.86023,1.28504 z m 62.81147,0.19672 c -0.31836,-0.41143 -0.72104,-1.15202 -0.89486,-1.64573 -0.17381,-0.49373 -4.39577,-7.62828 -9.38212,-15.85455 -8.29917,-13.69165 -9.95878,-17.35196 -6.45344,-14.23326 26.89708,23.93044 26.84414,23.86928 24.65278,28.48725 -1.4758,3.11003 -6.45051,5.14847 -7.92236,3.24629 z m -207.97086,-9.16552 c -1.6791,-0.91106 -3.44862,-3.64903 -3.44862,-5.33598 0,-0.5204 -0.47128,-1.11621 -1.0473,-1.32401 -4.48502,-1.61804 -6.62732,-6.28105 -5.26256,-11.45465 0.43111,-1.63427 1.65865,-4.2429 2.72786,-5.79695 l 1.94401,-2.82552 1.92316,2.09925 c 3.22843,3.52401 8.24722,3.71446 11.39177,0.43227 0.9421,-0.98334 2.13381,-1.78738 2.64824,-1.78674 1.24,0.002 4.58075,5.05212 5.38221,8.13689 0.49104,1.88999 0.44114,3.10445 -0.21753,5.29304 -1.03976,3.45486 -2.24439,4.86675 -4.90017,5.74324 -1.11222,0.36706 -2.02222,1.06382 -2.02222,1.54836 0,1.68642 -1.82707,4.39793 -3.57112,5.29981 -2.16897,1.12162 -3.43938,1.11498 -5.54773,-0.029 z m 351.88936,0 c -1.67909,-0.91106 -3.44862,-3.64903 -3.44862,-5.33598 0,-0.5204 -0.47127,-1.11621 -1.04729,-1.32401 -4.48502,-1.61804 -6.62733,-6.28105 -5.26256,-11.45465 0.43111,-1.63427 1.65865,-4.2429 2.72786,-5.79695 l 1.94401,-2.82552 1.92316,2.09925 c 3.22843,3.52401 8.24722,3.71446 11.39177,0.43227 0.9421,-0.98334 2.13381,-1.78738 2.64824,-1.78674 1.24001,0.002 4.58076,5.05212 5.38221,8.13689 0.49105,1.88999 0.44113,3.10445 -0.21754,5.29304 -1.03975,3.45486 -2.24439,4.86675 -4.90016,5.74324 -1.11222,0.36706 -2.02221,1.06382 -2.02221,1.54836 0,1.68642 -1.82708,4.39793 -3.57113,5.29981 -2.16898,1.12162 -3.43938,1.11498 -5.54774,-0.029 z m -214.91458,-0.15484 c -0.86522,-0.36185 0.24369,-1.0883 5.02326,-3.29077 3.37347,-1.55451 6.22605,-2.73394 6.33905,-2.62094 0.113,0.11301 -1.27424,1.48295 -3.08277,3.04432 -3.32432,2.87 -6.03153,3.80758 -8.27954,2.86739 z m 81.2997,-0.10024 c 0.42743,-0.69158 0.88145,-0.24502 -13.98476,-13.75473 -10.28661,-9.34798 -11.39762,-10.53922 -10.46528,-11.22096 0.57369,-0.41949 1.26325,-0.76272 1.53235,-0.76272 0.2691,0 6.36368,2.93952 13.5435,6.53227 16.60572,8.30943 18.58633,10.2911 15.91401,15.92258 -0.53797,1.13369 -1.79938,2.39511 -2.93309,2.93308 -2.2372,1.06163 -4.16182,1.24866 -3.60673,0.35048 z m -83.88772,-2.26153 c 0.26995,-0.14576 -0.0348,-0.63319 -0.67725,-1.08316 -0.64245,-0.44999 -2.29897,-3.18161 -3.68116,-6.07027 -1.38219,-2.88866 -2.76058,-5.71972 -3.06306,-6.29127 -0.71742,-1.35553 -0.69368,-1.65387 0.13161,-1.65387 0.84972,0 15.582,-8.5523 54.37593,-31.56602 53.84031,-31.9397 61.27096,-36.39396 70.3519,-42.17206 4.9186,-3.12965 13.925,-8.72717 20.01425,-12.43892 12.49727,-7.61784 42.90605,-26.91321 58.64822,-37.21424 14.66266,-9.59463 26.65179,-17.19378 39.19856,-24.84547 5.92467,-3.61319 19.05548,-12.27471 29.17957,-19.24785 10.12409,-6.97314 22.91599,-15.54399 28.42644,-19.04632 11.21171,-7.12597 26.66856,-17.67403 39.52367,-26.97171 4.70741,-3.40469 8.88161,-6.30724 9.27599,-6.45009 0.93711,-0.33939 12.86807,18.513 20.05129,31.68345 10.45009,19.16047 25.94221,56.04115 24.0356,57.21951 -1.86101,1.15015 -37.32511,12.55302 -37.71333,12.12607 -0.23376,-0.25706 -0.76925,-1.5446 -1.19002,-2.86119 -1.88895,-5.91066 -7.64833,-9.9887 -14.27031,-10.10445 -2.18237,-0.0381 -4.83829,0.30113 -5.91564,0.75567 -1.8537,0.78208 -2.19254,0.70442 -6.52795,-1.49613 -4.3225,-2.194 -4.8705,-2.3205 -10.01384,-2.3116 -4.6028,0.008 -5.95931,0.25093 -8.80441,1.57701 -5.87373,2.7377 -10.52782,7.86128 -12.53994,13.80487 -0.94905,2.80343 -1.28319,3.15741 -3.93748,4.17138 -3.57331,1.36504 -5.56483,3.08322 -7.55482,6.51793 -2.08221,3.59389 -2.60932,8.38489 -1.33426,12.12741 0.54329,1.59466 0.88555,3.00165 0.76057,3.12662 -0.12498,0.12497 -5.86701,2.14331 -12.76008,4.48518 -13.21578,4.48997 -39.74676,14.27696 -58.31439,21.51155 -6.08924,2.37257 -16.59205,6.26982 -23.3396,8.66055 -14.42615,5.11136 -29.61541,10.98214 -44.58462,17.23233 -5.92467,2.47377 -14.40771,5.89374 -18.85122,7.59993 -4.4435,1.70618 -14.54236,5.76213 -22.44192,9.01323 -7.89956,3.25109 -19.7489,8.05004 -26.33186,10.66431 -14.64858,5.81737 -39.30893,16.20733 -56.55365,23.82733 -11.0898,4.9003 -15.48433,6.75238 -13.57279,5.72029 z m 48.03785,-28.3094 c 1.22989,-1.02072 1.60443,-3.94211 0.73683,-5.74722 -1.57515,-3.27719 -7.04551,-3.11574 -8.3252,0.24572 -0.85102,2.23546 0.0215,5.03776 1.8692,6.00313 1.56078,0.81547 4.43604,0.56328 5.71917,-0.50163 z m -181.45203,6.82008 c -0.69524,-0.13961 -2.01548,-1.03815 -2.93387,-1.99674 -1.30547,-1.36262 -1.52045,-1.92286 -0.98532,-2.56766 0.37648,-0.45362 0.48486,-1.06929 0.24086,-1.36816 -0.244,-0.29885 0.29474,0.10743 1.19722,0.90287 2.20803,1.94615 6.43736,2.01844 8.43246,0.14414 1.44362,-1.35622 2.19492,-1.18782 2.19492,0.49196 0,2.45698 -4.8267,5.0602 -8.14627,4.39359 z m 351.95655,-0.0149 c -1.68396,-0.41313 -4.48839,-3.18924 -4.48839,-4.44306 0,-1.68775 1.1426,-1.91837 2.31726,-0.46772 1.3977,1.72608 6.03232,1.89593 7.81098,0.28626 0.64181,-0.58083 1.45319,-0.87912 1.80309,-0.66288 2.78854,1.72342 -3.56693,6.2383 -7.44294,5.2874 z m -351.85051,-6.35858 c -0.94361,-0.68998 -1.0734,-1.61852 -0.98046,-7.01354 0.0589,-3.42006 0.20289,-6.31403 0.31991,-6.43105 0.11702,-0.11703 1.44931,-0.0273 2.96065,0.19931 l 2.74788,0.41206 v 5.88262 c 0,5.40053 -0.10901,5.95898 -1.33007,6.81426 -1.62551,1.13854 -2.31285,1.16375 -3.71791,0.13634 z m 351.88688,-0.002 c -0.94165,-0.68854 -1.07506,-1.60286 -0.97975,-6.71502 0.0607,-3.25485 0.1631,-5.96796 0.22762,-6.02912 0.0645,-0.0612 1.3965,-0.30162 2.95995,-0.53436 l 2.84265,-0.42315 v 6.31775 c 0,5.85018 -0.0984,6.3867 -1.33007,7.24938 -1.62612,1.13897 -2.31279,1.1638 -3.7204,0.13452 z M 68.093824,494.86495 c -1.607344,-0.87213 -3.448608,-3.63154 -3.448608,-5.16824 0,-0.42814 -1.144538,-1.3233 -2.543418,-1.98924 -5.80122,-2.76169 -6.362068,-10.36805 -1.273747,-17.27516 l 2.156637,-2.92753 1.960318,2.1398 c 3.313602,3.61699 7.933235,3.71574 11.538535,0.24665 l 1.963867,-1.88968 1.463668,1.78147 c 5.491656,6.68399 5.278967,15.03793 -0.454197,17.83932 -1.234304,0.60311 -2.244193,1.49172 -2.244193,1.97468 0,1.68381 -1.828309,4.39569 -3.571112,5.29693 -2.168979,1.12163 -3.439386,1.11498 -5.54775,-0.029 z m 96.492766,-54.4528 C 80.160064,410.00426 9.179035,384.4336 6.8509703,383.58846 L 2.6181298,382.05185 6.9294513,370.55374 C 15.460056,347.80301 26.061179,326.26707 38.8079,305.79346 c 3.483728,-5.59552 6.414493,-10.28694 6.512818,-10.42538 0.09833,-0.13845 0.783644,0.29208 1.522932,0.9567 2.487937,2.23672 27.391965,19.94158 28.05023,19.94158 0.951252,0 0.588909,0.69611 -5.312184,10.20547 -5.013291,8.07868 -16.618887,29.24835 -16.197415,29.54555 0.272098,0.19187 66.730929,34.67692 69.661989,36.14713 l 2.44586,1.22685 3.78591,-7.29341 c 5.06521,-9.75792 12.64735,-22.19124 13.10045,-21.48234 0.20055,0.31375 40.62543,29.17862 89.83308,64.14417 49.20767,34.96553 89.69017,63.7813 89.96112,64.03506 0.41117,0.38505 -3.14811,3.11414 -3.85476,2.95565 -0.12572,-0.0282 -69.30483,-24.93045 -153.73134,-55.33834 z m 449.89331,54.4528 c -1.60738,-0.87213 -3.44865,-3.63154 -3.44865,-5.16824 0,-0.42814 -1.14453,-1.3233 -2.54341,-1.98924 -1.77663,-0.84576 -2.88884,-1.91406 -3.68915,-3.54339 -1.03245,-2.10182 -1.07285,-2.69246 -0.40857,-5.96997 0.46087,-2.27407 1.59398,-4.95223 3.02326,-7.14548 l 2.28602,-3.50812 1.36788,1.85012 c 2.70871,3.66375 8.23523,3.97169 11.66257,0.64984 l 1.92564,-1.8664 1.57991,1.69521 c 2.60769,2.79796 4.2016,6.72054 4.22469,10.39689 0.0258,4.10599 -1.31126,6.35559 -4.5286,7.6194 -1.28302,0.50398 -2.33275,1.2928 -2.33275,1.75295 0,1.64638 -1.84635,4.36349 -3.57114,5.25543 -2.16897,1.12163 -3.43936,1.11498 -5.5477,-0.029 z M 187.25949,393.8823 C 111.73568,339.83793 49.236884,295.08118 48.373286,294.42289 l -1.570172,-1.1969 7.574539,-10.24032 c 16.937723,-22.89883 32.33628,-39.41158 56.695267,-60.79755 1.23552,-1.08472 1.32313,-0.99113 11.96902,12.78583 5.89842,7.63322 11.06103,14.21578 11.47247,14.62792 0.91652,0.91811 0.95588,1.4333 0.10951,1.4333 -1.10297,0 -16.70999,14.55976 -24.42342,22.78455 l -7.38659,7.8763 1.41261,1.3795 c 0.77693,0.75873 14.03225,13.34813 29.45627,27.97646 l 28.04366,26.59695 11.9597,-11.95969 c 9.93695,-9.93696 12.08905,-11.82109 12.72453,-11.14013 0.5552,0.59494 136.06858,170.78269 139.88282,175.67523 0.36717,0.47097 0.17269,0.90862 -0.58366,1.3134 -0.96396,0.5159 -21.75643,-14.14998 -138.45035,-97.65544 z M 221.9663,355.61899 C 163.25273,281.86354 114.89997,221.07653 114.51573,220.53674 c -0.6014,-0.84484 0.64624,-2.01829 8.9646,-8.43148 19.82693,-15.28596 41.75054,-28.96799 61.98845,-38.6856 5.72511,-2.74902 10.51698,-4.89054 10.64859,-4.75894 0.18761,0.18763 14.54996,33.98104 14.54996,34.23487 0,0.0352 -0.33663,0.0718 -0.74807,0.0813 -1.47706,0.0341 -21.27188,10.22234 -29.90641,15.39262 -7.80851,4.67566 -8.74279,5.40343 -8.21143,6.39629 1.42023,2.65372 40.21119,67.90783 40.62866,68.34546 0.25376,0.26605 3.64948,-1.44171 7.54605,-3.79497 3.89655,-2.35328 10.46533,-5.97195 14.59726,-8.04148 l 7.51263,-3.76281 43.98618,105.31543 c 24.19238,57.92349 44.06487,105.52434 44.16107,105.77967 0.0962,0.25535 -0.20533,0.61018 -0.67005,0.78851 -0.57654,0.22125 -34.75766,-42.27656 -107.59692,-133.77658 z m 110.0135,131.05638 c -0.16567,-0.41143 -30.11918,-72.11338 -66.56335,-159.33765 -36.44417,-87.22429 -66.29742,-158.98277 -66.34053,-159.46329 -0.20971,-2.3372 36.10166,-15.28854 58.56984,-20.89039 11.7119,-2.92004 33.54664,-7.12771 34.1026,-6.57173 0.2009,0.20088 4.49751,35.14495 4.49751,36.57786 0,0.0959 -0.6977,0.23218 -1.55043,0.30275 -4.36927,0.36162 -19.85678,3.54919 -30.32959,6.24233 -9.75354,2.50816 -11.78333,3.21117 -11.55543,4.0022 0.15205,0.52775 4.78469,18.19496 10.29476,39.26045 5.51005,21.06548 10.04714,38.35616 10.08241,38.42373 0.0353,0.0676 3.55467,-0.83049 7.82089,-1.9957 8.52762,-2.32908 24.81261,-5.6383 24.81261,-5.04207 0,0.20713 6.19397,51.7934 13.76437,114.63615 7.57041,62.84275 13.76438,114.33693 13.76438,114.4315 0,0.52519 -1.11548,0.0561 -1.37004,-0.57614 z m -165.70243,-1.96038 c -13.02085,-1.77612 -27.35032,-7.33611 -38.79477,-15.05279 -7.47701,-5.04156 -17.35733,-14.51765 -22.78293,-21.85083 -4.50448,-6.08823 -11.234542,-19.09643 -13.400807,-25.90175 -0.83528,-2.62405 -1.518695,-5.10028 -1.518695,-5.50273 0,-0.4907 1.063208,-0.26154 3.227557,0.69564 1.775149,0.78506 3.366455,1.28847 3.536237,1.1187 0.16977,-0.16978 1.069508,1.79879 1.999405,4.37459 10.176953,28.18979 34.016343,48.58789 63.948633,54.71741 5.38671,1.10308 8.43173,1.34042 16.75663,1.30599 8.83251,-0.0365 11.11665,-0.25711 17.32673,-1.67345 8.77249,-2.00074 16.27565,-4.83447 23.36797,-8.82544 2.96233,-1.66696 6.05932,-3.02015 6.88218,-3.00709 0.82288,0.013 2.68294,0.54257 4.13349,1.1767 l 2.63734,1.15297 -6.22806,3.83678 c -18.45953,11.37195 -40.56974,16.2345 -61.09091,13.4353 z m 168.86784,0.72975 c 0,-0.10085 -9.15555,-77.84043 -20.34565,-172.75465 -11.19011,-94.91422 -20.24158,-172.67536 -20.11439,-172.80255 0.12719,-0.12719 6.25307,-0.91379 13.61307,-1.748 11.87541,-1.346 15.87442,-1.52024 35.52451,-1.54775 19.04522,-0.0267 23.85886,0.15686 34.41095,1.31197 6.74754,0.73865 12.35097,1.42073 12.4521,1.51573 0.10111,0.095 -1.04343,8.29673 -2.54342,18.22607 -1.5,9.92932 -2.72727,18.11298 -2.72727,18.18589 0,0.0729 -4.37617,-0.31939 -9.72483,-0.87178 -5.34867,-0.55238 -15.31288,-1.20038 -22.1427,-1.43999 l -12.41786,-0.43565 -0.0136,2.32042 c -0.007,1.27624 -0.40531,18.88258 -0.88404,39.12519 -0.47874,20.24262 -0.87657,37.50266 -0.88406,38.35566 l -0.0136,1.55092 11.52017,0.42221 c 11.36839,0.41663 20.58289,1.15003 21.11327,1.6804 0.1497,0.1497 -7.80484,51.68148 -17.67677,114.51507 -9.8719,62.83359 -17.94894,114.31743 -17.94894,114.40853 0,0.0911 -0.26929,0.16566 -0.59845,0.16566 -0.32915,0 -0.59844,-0.0825 -0.59844,-0.18335 z m 164.87333,-0.49055 c -13.17955,-1.25316 -27.87424,-6.31484 -39.66983,-13.6645 l -6.15654,-3.83605 3.68285,-1.3845 3.68285,-1.3845 5.30992,2.99332 c 7.34392,4.13992 15.69401,7.34031 24.17398,9.26531 6.20803,1.40927 8.56038,1.63751 17.35509,1.68386 11.48561,0.0605 18.16524,-1.01168 28.96987,-4.65032 14.63891,-4.92988 28.98733,-15.25556 38.90793,-27.99962 4.50295,-5.78452 9.78289,-15.19963 12.05041,-21.48811 1.9107,-5.29891 2.01044,-5.4379 4.6989,-6.54827 1.51073,-0.62394 3.21806,-1.40608 3.79407,-1.73807 1.42922,-0.82372 1.36687,-0.17761 -0.57428,5.95413 -2.4649,7.78613 -8.5598,19.16253 -14.37058,26.82335 -14.8669,19.60023 -36.91776,32.48834 -61.20808,35.77441 -6.8796,0.93071 -12.39643,0.98403 -20.64656,0.19956 z M 338.7647,483.80908 c -0.0747,-0.83786 54.44729,-343.70389 54.69453,-343.95115 0.15555,-0.15554 5.90145,0.69076 12.76867,1.88066 23.3146,4.03981 47.22776,10.72321 69.20129,19.34084 6.28288,2.46403 11.52911,4.58504 11.65828,4.71337 0.12917,0.12831 -3.34937,7.92548 -7.73009,17.32704 -4.38073,9.40157 -8.14544,16.80172 -8.36604,16.44477 -0.65081,-1.05303 -19.52263,-8.15484 -30.96692,-11.6534 -5.82454,-1.7806 -10.67306,-3.15447 -10.77448,-3.05305 -0.5579,0.55789 -23.48169,76.69948 -23.2632,77.26888 0.14391,0.37503 2.91268,1.42731 6.15281,2.33841 6.81408,1.91607 23.56579,7.8949 24.36806,8.69717 0.32662,0.32663 -18.42528,41.29288 -46.90247,102.46528 -44.97462,96.61086 -50.77215,108.9472 -50.84044,108.18118 z m 4.88939,-3.56705 c 0.76824,-1.86239 143.94951,-309.78455 144.8944,-311.60638 l 0.98948,-1.90782 11.20139,5.38644 c 21.62605,10.39937 42.80804,23.34557 61.51811,37.59919 5.26637,4.012 9.57523,7.68558 9.57523,8.16351 0,0.47794 -5.37476,7.05793 -11.9439,14.62219 -8.33365,9.59606 -12.08088,13.5084 -12.39712,12.94333 -1.60864,-2.87448 -35.37184,-26.23641 -36.36724,-25.16376 -0.89924,0.969 -43.80316,67.97952 -43.61058,68.11419 0.10357,0.0724 3.15064,1.99003 6.77128,4.26133 6.77024,4.24714 20.04866,13.89028 20.0474,14.55894 -10e-4,0.66596 -148.3374,172.09905 -149.7169,173.02884 -1.18387,0.79792 -1.2907,0.79792 -0.96155,0 z m -176.82332,-4.01936 -1.64573,-0.2493 V 459.5557 c 0,-9.02971 0.0867,-16.41766 0.19261,-16.41766 0.10594,0 1.45245,0.42927 2.99226,0.95393 l 2.79964,0.95393 v 15.80272 15.8027 l -1.34652,-0.0897 c -0.74059,-0.0493 -2.0871,-0.20186 -2.99226,-0.33898 z M 517.07441,460.84862 V 445.0459 l 2.79963,-0.95393 c 1.53981,-0.52466 2.88631,-0.95393 2.99225,-0.95393 0.10594,0 0.19263,7.3706 0.19263,16.37911 v 16.37911 l -2.2442,0.37094 c -1.2343,0.20402 -2.58082,0.3739 -2.99226,0.37752 -0.57972,0.005 -0.74805,-3.5494 -0.74805,-15.7961 z M 353.6972,473.86406 c 0.82286,-1.03249 50.77859,-58.61544 111.01271,-127.96212 60.23412,-69.34668 109.44142,-126.35552 109.34953,-126.68634 -0.27803,-1.00101 15.16176,12.89899 24.3135,21.88874 10.71101,10.52149 24.41501,26.28932 33.801,38.89146 3.94865,5.30172 7.40482,9.72925 7.68041,9.83896 0.82388,0.32804 0.56697,1.74173 -0.38277,2.10619 -0.48606,0.18652 -7.28597,4.74451 -15.1109,10.12885 -16.55765,11.39338 -15.80199,10.909 -15.40497,9.87443 0.41472,-1.08084 -11.42952,-16.87559 -20.20714,-26.94695 -3.94441,-4.52578 -7.35339,-8.22871 -7.57549,-8.22871 -0.63458,0 -60.8072,52.79389 -60.8072,53.35066 0,0.27356 2.55839,3.37266 5.6853,6.88688 6.25058,7.02482 15.55973,19.15323 15.55973,20.27198 0,0.39036 -1.68315,1.73966 -3.74032,2.99843 -2.05718,1.25878 -24.07271,15.21397 -48.9234,31.01153 -24.85069,15.79755 -54.37799,34.30574 -65.61622,41.12931 -11.23823,6.82358 -24.56873,15.03952 -29.62334,18.25766 -5.05461,3.21815 -15.51881,9.60456 -23.2538,14.19204 -7.73499,4.5875 -15.00617,8.9109 -16.15818,9.60757 l -2.09459,1.26667 z M 69.066418,470.26055 c -1.894767,-0.38049 -4.655945,-3.5049 -4.184101,-4.7345 0.353269,-0.92061 0.540341,-0.88425 1.868218,0.36324 2.051239,1.92703 6.590524,1.96355 8.127566,0.0654 1.031341,-1.27365 1.091316,-1.28034 1.676406,-0.18708 1.212065,2.26476 -3.751947,5.24324 -7.488089,4.49296 z m 546.453222,-0.0149 c -1.9649,-0.48205 -4.38868,-3.12233 -4.05116,-4.41303 0.38259,-1.46306 0.62904,-1.44425 1.91702,0.14635 1.48626,1.83544 6.35993,1.85126 7.8384,0.0255 1.09188,-1.3484 1.77639,-1.1678 1.77639,0.46869 0,2.29239 -4.42262,4.52275 -7.48065,3.77254 z M 68.967528,464.34913 c -1.248205,-0.87428 -1.330063,-1.37151 -1.330063,-8.0791 0,-3.93111 0.127453,-7.14748 0.283224,-7.14748 0.155771,0 1.502277,0.59228 2.992249,1.31617 l 2.709037,1.31615 v 6.14342 c 0,5.46135 -0.128522,6.21222 -1.157555,6.76295 -1.535616,0.82183 -1.927948,0.78682 -3.496892,-0.31211 z m 546.386042,0 c -1.22114,-0.85532 -1.33005,-1.41361 -1.33005,-6.81721 v -5.8856 l 2.54341,-1.02832 c 1.39888,-0.56557 2.88005,-1.16224 3.29149,-1.32591 0.57355,-0.22816 0.74806,1.38497 0.74806,6.91392 0,6.77375 -0.0807,7.26807 -1.33006,8.14312 -0.73155,0.51238 -1.6142,0.93161 -1.96142,0.93161 -0.34723,0 -1.22988,-0.41923 -1.96143,-0.93161 z M 92.173967,453.29447 C 76.597376,451.73878 60.54732,444.05508 49.757823,432.98848 40.107497,423.0903 34.055728,412.37436 30.902281,399.60071 c -0.75163,-3.04463 -1.299069,-5.53567 -1.216535,-5.53567 0.08253,0 1.451572,0.55789 3.042314,1.23977 1.590753,0.68187 3.026915,1.28292 3.19149,1.33565 0.164564,0.0527 0.914977,2.25521 1.667553,4.89436 1.888727,6.62336 6.055833,14.819 10.593634,20.83504 11.022533,14.61322 27.104173,23.24947 46.813941,25.14024 l 7.450882,0.71478 2.10296,2.84264 2.10296,2.84264 -4.99456,-0.0837 c -2.747009,-0.046 -7.014332,-0.28543 -9.482953,-0.53199 z m 489.533173,0.15929 c 0,-0.35242 0.21313,-0.73052 0.47363,-0.84024 0.26049,-0.10971 1.19971,-1.16307 2.08714,-2.3408 l 1.61352,-2.14132 7.34116,-0.6509 c 20.07195,-1.77968 36.72643,-10.92723 47.88647,-26.30191 3.66294,-5.0463 7.90704,-13.82155 9.55368,-19.75359 l 1.36243,-4.90829 3.19513,-1.22584 c 1.75729,-0.6742 3.27712,-1.22583 3.3773,-1.22583 0.48475,0 -2.84839,11.6083 -4.44463,15.47916 -8.80837,21.36047 -26.51607,36.53863 -49.19114,42.16419 -7.07004,1.75404 -23.25469,2.96877 -23.25469,1.74537 z m -465.24211,-4.50635 -2.09766,-2.51788 4.61265,-1.51565 c 6.21669,-2.04269 11.92777,-4.77806 16.79743,-8.04524 l 4.04144,-2.71151 3.25568,0.96684 3.25568,0.96682 -2.0928,1.79616 c -5.22003,4.48014 -13.15028,8.96042 -20.95161,11.83685 l -4.72316,1.74149 z m 447.78603,0.51411 c -2.8533,-1.08344 -7.11111,-3.02727 -9.46177,-4.31965 -6.42387,-3.53178 -15.37726,-10.33416 -12.72955,-9.67134 1.03205,0.25837 5.53568,-0.86088 5.53568,-1.37574 0,-0.30785 1.95244,0.76197 4.33876,2.37738 5.2897,3.58083 8.93234,5.42696 14.81168,7.50677 2.46861,0.87326 4.89235,1.75731 5.38606,1.96456 0.49373,0.20725 1.12446,0.32579 1.40164,0.26343 0.27719,-0.0624 -0.49585,1.10675 -1.71784,2.59803 -1.22198,1.49126 -2.25668,2.69229 -2.2993,2.6689 -0.0427,-0.0234 -2.41205,-0.92892 -5.26536,-2.01234 z m -493.769221,-11.03273 -2.840911,-1.57448 -0.0017,-14.51245 c -9.45e-4,-7.98184 0.125722,-14.51244 0.281493,-14.51244 0.155771,0 1.502277,0.59226 2.992249,1.31615 l 2.709037,1.31615 v 14.84203 c 0,8.16312 -0.06732,14.80997 -0.149606,14.77077 -0.08229,-0.0392 -1.42802,-0.77976 -2.99053,-1.64573 z M 614.02352,425.24298 v -14.8898 l 2.54341,-1.02832 c 1.39888,-0.56558 2.88005,-1.16224 3.29149,-1.32591 0.58612,-0.23318 0.74806,2.86295 0.74806,14.30382 v 14.60142 l -3.29148,1.61429 -3.29148,1.6143 z m -34.34598,-9.64581 c -0.52946,-1.32326 -0.95674,-3.14105 -0.94951,-4.03955 0.0199,-2.47496 1.97501,-6.27272 4.18769,-8.13458 2.1187,-1.78277 1.44968,-1.74269 10.65765,-0.63844 l 3.18865,0.38239 -2.14137,1.45511 c -1.17776,0.80031 -2.14139,1.93912 -2.14139,2.5307 0,0.59157 -0.36686,1.07558 -0.81526,1.07558 -0.4484,0 -1.78577,0.5998 -2.97194,1.3329 -1.5598,0.96401 -2.26153,1.89181 -2.53553,3.3524 -0.20838,1.11072 -0.21731,2.28088 -0.0199,2.60036 0.26125,0.42273 -4.19573,2.48905 -5.36883,2.48905 -0.0702,0 -0.56084,-1.08267 -1.0903,-2.40592 z m 8.19434,-1.57832 c -0.46164,-1.20301 2.3096,-3.79563 4.05712,-3.79563 0.67759,0 1.39987,-0.58267 1.69964,-1.37111 0.28671,-0.75411 0.9072,-1.69139 1.37887,-2.08284 0.75808,-0.62915 8.38518,-3.72746 9.17585,-3.72746 0.27356,0 -0.31125,6.05388 -0.62227,6.44153 -0.13812,0.17215 -14.77228,5.52749 -15.10461,5.52749 -0.11216,0 -0.37524,-0.44639 -0.5846,-0.99198 z m 18.37176,-6.45436 c 0,-2.38156 1.58195,-4.98005 3.69802,-6.0743 2.36424,-1.22259 5.86847,-0.36192 7.27663,1.78721 l 0.93304,1.42402 -5.20581,1.95212 c -2.86317,1.07369 -5.54237,2.07559 -5.95381,2.22649 -0.4796,0.17587 -0.74807,-0.29628 -0.74807,-1.31554 z m 12.48999,-6.27331 -2.17203,-2.30819 6.02546,-2.23502 6.02543,-2.23503 1.05825,1.30691 c 0.88924,1.09812 1.2625,1.19763 2.33648,0.62284 1.5841,-0.84777 3.89998,-0.32517 4.40627,0.99432 0.20862,0.54367 0.27027,1.0976 0.13687,1.23095 -0.17618,0.17623 -15.64466,5.07005 -15.64466,4.94958 0,-0.01 -0.97744,-1.05686 -2.17207,-2.32636 z m -15.1641,-1.19967 c -1.0607,-2.35219 -0.90379,-5.42802 0.2769,-5.42802 0.35153,0 0.33172,-0.63267 -0.0514,-1.64027 -0.55196,-1.45185 -0.43,-1.79522 1.06212,-2.98929 2.13623,-1.70952 2.82571,-1.69727 4.2198,0.075 0.61868,0.7865 1.64814,1.52968 2.28764,1.6515 0.66362,0.12642 1.85904,1.51812 2.78466,3.24202 l 1.62186,3.02051 -2.39925,0.14157 c -2.91464,0.17197 -4.45894,0.79465 -6.88548,2.77627 l -1.85191,1.51231 z m -7.73855,0.49386 c -1.94176,-0.28331 -3.65948,-0.64411 -3.81714,-0.80177 -0.68311,-0.6831 1.29455,-6.27327 3.22012,-9.10215 3.19577,-4.69494 8.95329,-7.98699 13.96856,-7.98699 3.34982,0 7.84227,1.54029 10.9623,3.75856 l 2.80046,1.99103 -2.42787,2.96011 c -1.33532,1.62805 -2.63097,3.17295 -2.87926,3.43311 -0.24824,0.26015 -1.1714,-0.61508 -2.05149,-1.94496 -0.88008,-1.32989 -2.00206,-2.41798 -2.49327,-2.41798 -0.49121,0 -1.45963,-0.65151 -2.15197,-1.44779 -0.69236,-0.79628 -1.91277,-1.61193 -2.71206,-1.81253 -1.43868,-0.36108 -5.26224,1.03854 -5.9713,2.18579 -0.47576,0.76988 -0.96817,4.84181 -1.05261,8.7049 -0.0524,2.39907 -0.28091,3.1247 -0.96632,3.06889 -0.49372,-0.0402 -2.48639,-0.3049 -4.42815,-0.58822 z m 41.65704,-4.53831 c -0.89541,-1.22915 -1.7157,-1.62557 -3.49035,-1.68668 -1.27591,-0.0439 -3.07796,-0.39766 -4.00454,-0.78606 -2.20817,-0.92562 -3.3259,-0.89113 -6.41253,0.19788 -1.40929,0.49724 -2.63366,0.83276 -2.7208,0.74562 -0.0872,-0.0871 1.53886,-2.04028 3.61339,-4.34032 l 3.7718,-4.18188 3.67348,0.0499 c 3.12421,0.0424 4.00722,0.31417 5.90558,1.81734 2.56185,2.02854 5.86421,8.07447 4.73285,8.66481 -2.38867,1.24643 -3.91633,1.10156 -5.06888,-0.48063 z M 90.620397,372.65577 c -18.463908,-9.45497 -33.679531,-17.33876 -33.81251,-17.51956 -0.132967,-0.18079 1.968447,-4.51049 4.669821,-9.62155 5.401815,-10.22039 16.110265,-27.77849 16.430304,-26.93997 0.269729,0.70666 60.852768,43.77242 61.577148,43.77242 0.78855,0 0.70418,0.63814 -0.23113,1.74824 -1.44303,1.71265 -7.98289,12.81399 -10.80546,18.34215 -1.52438,2.98558 -3.10593,5.874 -3.51453,6.41873 -0.66522,0.88679 -4.25437,-0.80775 -34.313643,-16.20046 z M 543.57394,355.97699 c 0.77562,-1.25498 -19.28352,-25.87118 -20.74626,-25.45941 -1.05689,0.29753 0.24176,-0.85042 28.65767,-25.33206 14.81167,-12.76095 27.48959,-23.70502 28.17317,-24.32015 1.23532,-1.11163 1.28535,-1.06923 8.2439,6.98608 7.26538,8.41052 19.06493,23.91524 19.17552,25.19688 0.0621,0.71905 -21.04915,15.26916 -48.41118,33.36557 -16.14253,10.67618 -15.54788,10.29939 -15.09282,9.56309 z M 135.44543,309.22321 c -14.41858,-13.60972 -26.84923,-25.3689 -27.62366,-26.13152 l -1.40805,-1.38656 6.19566,-6.72925 c 3.40762,-3.70108 10.20068,-10.35745 15.09567,-14.79193 7.29403,-6.60779 9.03367,-7.91769 9.64077,-7.2592 0.40742,0.44189 10.92639,13.73001 23.37548,29.52911 12.44908,15.79912 22.88934,28.89739 23.20058,29.10727 0.31123,0.20988 -0.61292,1.40427 -2.05368,2.65421 -1.44076,1.24993 -6.57677,6.20565 -11.41337,11.01271 l -8.7938,8.7401 z m 360.29881,-3.52651 c 0.6652,-1.18677 -23.34492,-18.1909 -24.96136,-17.67781 -0.3101,0.0984 -0.16616,-0.44016 0.31984,-1.1969 26.83207,-41.77871 40.8603,-63.31558 41.24115,-63.31558 1.84797,0 34.0104,22.90702 34.03021,24.23728 0.007,0.48494 -48.15681,55.98573 -50.37606,58.04977 -0.4377,0.40708 -0.51884,0.37615 -0.25378,-0.0968 z M 194.03235,257.82706 c -10.54466,-17.97837 -19.05302,-32.98798 -18.90748,-33.35469 0.3958,-0.99714 15.97508,-9.81363 26.86904,-15.20549 l 9.57935,-4.7412 14.65793,34.98937 c 8.06185,19.24415 14.70312,35.16217 14.75833,35.37338 0.0552,0.21122 -2.87757,1.86519 -6.5173,3.67551 -5.20567,2.58916 -14.98082,8.06552 -20.6421,11.56439 -0.36751,0.22715 -8.536,-13.10024 -19.79777,-32.30127 z m 243.12282,12.99384 c -0.85181,-0.84736 -15.85105,-6.24069 -22.71517,-8.16775 -3.29148,-0.92408 -6.04443,-1.70943 -6.11766,-1.74524 -0.27549,-0.13471 21.95332,-72.32775 22.4113,-72.78573 0.9838,-0.98381 39.66156,12.4464 39.66156,13.77181 0,0.40114 -30.93148,66.39934 -32.07829,68.44517 -0.37351,0.66629 -0.79891,0.84269 -1.16174,0.48174 z m -162.4577,-7.89304 c -0.002,-0.12259 -4.30609,-16.78046 -9.564,-37.0175 -7.4932,-28.84034 -9.40055,-36.94164 -8.823,-37.47477 1.36944,-1.26412 39.5252,-9.82425 40.30675,-9.04271 0.0771,0.0771 2.04481,16.16081 4.37274,35.74161 2.32792,19.5808 4.38898,36.68705 4.58015,38.01389 0.29677,2.0597 0.1849,2.42468 -0.76506,2.49623 -4.94663,0.37263 -27.95427,5.78653 -29.35536,6.9076 -0.41144,0.3292 -0.74994,0.49824 -0.75222,0.37565 z m 96.61469,-8.91011 c -1.04388,-0.3957 -15.77227,-1.48979 -26.29251,-1.95311 l -2.99226,-0.13179 0.13952,-17.95354 c 0.0767,-9.87445 0.31061,-27.07557 0.51974,-38.22472 l 0.38021,-20.27118 10.2524,0.38648 c 11.82459,0.44576 31.4974,2.16932 31.4974,2.75954 0,0.78573 -11.97348,75.60156 -12.11947,75.72804 -0.0818,0.0709 -0.70509,-0.082 -1.38503,-0.33972 z"
       id="path4764"
       style="fill:#ffffff;stroke-width:1.22799" />
  </g>
</svg>
